G04*
G04 #@! TF.GenerationSoftware,Altium Limited,Altium Designer,26.2.0 (7)*
G04*
G04 Layer_Color=65535*
%FSLAX25Y25*%
%MOIN*%
G70*
G04*
G04 #@! TF.SameCoordinates,5C402370-0CE7-4FFC-B1B3-1F2DDCE1193B*
G04*
G04*
G04 #@! TF.FilePolarity,Positive*
G04*
G01*
G75*
%ADD10C,0.00984*%
%ADD11C,0.00787*%
%ADD12C,0.00100*%
D10*
X649292Y114968D02*
G03*
X649292Y114968I-492J0D01*
G01*
X645647Y109300D02*
G03*
X645647Y109300I-492J0D01*
G01*
X641743Y113731D02*
G03*
X641743Y113731I-492J0D01*
G01*
D11*
X645901Y117724D02*
Y124308D01*
X651699Y117724D02*
Y124308D01*
X617236Y103387D02*
X621764D01*
X647714Y112002D02*
X653511D01*
X647714Y106598D02*
X653511D01*
X634115Y112008D02*
X643663D01*
X634115Y104823D02*
Y112008D01*
Y104823D02*
X643663D01*
Y112008D01*
D12*
X655351Y116000D02*
Y115000D01*
X656017D01*
X657017D02*
X656350D01*
X657017Y115667D01*
Y115833D01*
X656850Y116000D01*
X656517D01*
X656350Y115833D01*
X657350Y115000D02*
Y115167D01*
X657516D01*
Y115000D01*
X657350D01*
X658183Y116000D02*
X658849D01*
Y115833D01*
X658183Y115167D01*
Y115000D01*
X652934Y127600D02*
Y126600D01*
X653600D01*
X653934D02*
X654267D01*
X654100D01*
Y127600D01*
X653934Y127433D01*
X654767Y126600D02*
Y126767D01*
X654933D01*
Y126600D01*
X654767D01*
X655600Y127433D02*
X655766Y127600D01*
X656100D01*
X656266Y127433D01*
Y127267D01*
X656100Y127100D01*
X656266Y126933D01*
Y126767D01*
X656100Y126600D01*
X655766D01*
X655600Y126767D01*
Y126933D01*
X655766Y127100D01*
X655600Y127267D01*
Y127433D01*
X655766Y127100D02*
X656100D01*
X616600Y121600D02*
X616267D01*
X616433D01*
Y120767D01*
X616267Y120600D01*
X616100D01*
X615934Y120767D01*
X616933Y120600D02*
X617267D01*
X617100D01*
Y121600D01*
X616933Y121433D01*
X688667Y112500D02*
X689167D01*
X689334Y112667D01*
X689167Y112833D01*
X688834D01*
X688667Y113000D01*
X688834Y113167D01*
X689334D01*
X689667Y112500D02*
Y113167D01*
X689833D01*
X690000Y113000D01*
Y112500D01*
Y113000D01*
X690167Y113167D01*
X690333Y113000D01*
Y112500D01*
X691333Y113500D02*
Y112500D01*
X690833D01*
X690666Y112667D01*
Y113000D01*
X690833Y113167D01*
X691333D01*
X637745Y115400D02*
Y116400D01*
X638078Y116067D01*
X638412Y116400D01*
Y115400D01*
X638745Y116400D02*
Y115400D01*
X639245D01*
X639411Y115567D01*
Y116233D01*
X639245Y116400D01*
X638745D01*
X639744Y116233D02*
X639911Y116400D01*
X640244D01*
X640411Y116233D01*
Y116067D01*
X640078Y115733D01*
Y115567D02*
Y115400D01*
M02*
