G04*
G04 #@! TF.GenerationSoftware,Altium Limited,Altium Designer,26.2.0 (7)*
G04*
G04 Layer_Color=16711935*
%FSLAX25Y25*%
%MOIN*%
G70*
G04*
G04 #@! TF.SameCoordinates,5C402370-0CE7-4FFC-B1B3-1F2DDCE1193B*
G04*
G04*
G04 #@! TF.FilePolarity,Negative*
G04*
G01*
G75*
%ADD24C,0.03162*%
D24*
X619400Y110000D02*
D03*
X645900Y127800D02*
D03*
X643400Y123500D02*
D03*
X652100Y127900D02*
D03*
X629200Y102600D02*
D03*
X633800Y102200D02*
D03*
X639200Y102300D02*
D03*
X644300D02*
D03*
X643300Y118800D02*
D03*
X653900Y123700D02*
D03*
X654000Y116400D02*
D03*
X645300Y113400D02*
D03*
X657200Y106300D02*
D03*
X650600Y103600D02*
D03*
X657900Y112300D02*
D03*
X634100Y117100D02*
D03*
X630200Y111800D02*
D03*
X640200Y114600D02*
D03*
X624300Y117800D02*
D03*
X628900D02*
D03*
X610000Y115200D02*
D03*
X619400Y119800D02*
D03*
X614900Y117000D02*
D03*
X686600Y122800D02*
D03*
X680900D02*
D03*
X668400D02*
D03*
X674600D02*
D03*
X691800Y122900D02*
D03*
X697100Y123000D02*
D03*
X662900Y122800D02*
D03*
X658000Y120300D02*
D03*
M02*
