M48
;Layer_Color=9474304
;FILE_FORMAT=2:5
INCH
;TYPE=PLATED
T01F00S00C0.01181
%
T01
X0610000Y0115200
X0614900Y0117000
X0619400Y0119800
X0624300Y0117800
X0619400Y0110000
X0630200Y0111800
X0628900Y0117800
X0634100Y0117100
X0640200Y0114600
X0645300Y0113400
X0643300Y0118800
X0643400Y0123500
X0645900Y0127800
X0652100Y0127900
X0653900Y0123700
X0654000Y0116400
X0658000Y0120300
X0662900Y0122800
X0668400
X0674600
X0680900
X0686600
X0691800Y0122900
X0697100Y0123000
X0657900Y0112300
X0657200Y0106300
X0650600Y0103600
X0644300Y0102300
X0639200
X0633800Y0102200
X0629200Y0102600
M30
